<?xml version="1.0" standalone="no"?><!DOCTYPE svg PUBLIC "-//W3C//DTD SVG 1.1//EN" "http://www.w3.org/Graphics/SVG/1.1/DTD/svg11.dtd"><svg t="1505661247548" class="icon" style="" viewBox="0 0 1024 1024" version="1.1" xmlns="http://www.w3.org/2000/svg" p-id="2415" xmlns:xlink="http://www.w3.org/1999/xlink" width="16" height="16"><defs><style type="text/css"></style></defs><path d="M534.59968 357.42208l294.20032 294.20032a32.0512 32.0512 0 0 0 45.30176 0 32.0512 32.0512 0 0 0 0-45.30176l-316.8-316.8c-25.00096-25.00096-65.50016-25.00096-90.50112 0l-316.8 316.8a32.0512 32.0512 0 0 0 0 45.30176 32.0512 32.0512 0 0 0 45.30176 0l294.09792-294.20032a31.9232 31.9232 0 0 1 45.19936 0zM884.65408 195.85536c0.04608 17.29024-14.9248 31.34976-33.4336 31.39584l-677.00224 0.84992c-18.5088 0.04608-33.55136-13.93152-33.59232-31.22688-0.04608-17.29024 14.9248-31.34976 33.4336-31.39584l677.00224-0.84992c18.5088-0.04608 33.54624 13.93664 33.59232 31.22688z" fill="#8a8a8a" p-id="2416"></path><path d="M513.152 912.38912c-17.29024 0.04608-31.34976-14.9248-31.39584-33.4336l-0.84992-574.592c-0.04608-18.5088 13.93152-33.55136 31.22688-33.59232 17.29024-0.04608 31.34976 14.9248 31.39584 33.4336l0.84992 574.592c0.04608 18.5088-13.93664 33.54624-31.22688 33.59232z" fill="#8a8a8a" p-id="2417"></path></svg>